<svg width="152" height="40" viewBox="0 0 152 40" fill="none" xmlns="http://www.w3.org/2000/svg">
<path d="M38.6906 20.6902L34.7708 3.1766C34.6267 2.53627 34.2318 1.97865 33.6728 1.62608C33.1139 1.27351 32.4364 1.15479 31.7891 1.29596L14.0932 5.17539C13.7726 5.24566 13.4692 5.37773 13.2002 5.56407C12.9313 5.7504 12.702 5.98735 12.5255 6.26137C12.3491 6.5354 12.2289 6.84114 12.1719 7.16114C12.1148 7.48114 12.122 7.80912 12.193 8.12637L13.8353 15.464H3.75C3.08719 15.4647 2.45173 15.7256 1.98306 16.1895C1.51438 16.6533 1.25074 17.2822 1.25 17.9382V35.8764C1.25074 36.5323 1.51438 37.1612 1.98306 37.6251C2.45173 38.0889 3.08719 38.3499 3.75 38.3506H21.875C22.5378 38.3499 23.1733 38.0889 23.6419 37.6251C24.1106 37.1612 24.3743 36.5323 24.375 35.8764V26.3627L36.7904 23.6411C37.4374 23.4985 38.0008 23.1077 38.357 22.5545C38.7133 22.0013 38.8332 21.3308 38.6906 20.6902ZM21.875 35.8764H3.75V17.9382H14.3891L16.1128 25.6397C16.2359 26.1888 16.5442 26.68 16.9869 27.0326C17.4297 27.3853 17.9805 27.5782 18.5487 27.5798C18.7323 27.5797 18.9152 27.5598 19.0944 27.5204L21.8756 26.9106L21.8766 35.8764H21.875ZM36.25 21.2253L18.5537 25.1047L14.6339 7.59101L32.33 3.71142L36.2513 21.2247L36.25 21.2253Z" fill="#494D4B"/>
<path d="M6.25 20.4124H9.375V23.5051H6.25V20.4124Z" fill="#7B5DD5"/>
<path d="M6.25 30.3093H9.375V33.4021H6.25V30.3093Z" fill="#7B5DD5"/>
<path d="M16.25 30.3093H19.375V33.4021H16.25V30.3093Z" fill="#7B5DD5"/>
<path d="M11.25 25.3608H14.375V28.4536H11.25V25.3608Z" fill="#1DB863"/>
<path d="M17.6138 9.47682L20.6649 8.80847L21.3402 11.8282L18.2891 12.4965L17.6138 9.47682Z" fill="#1DB863"/>
<path d="M29.541 16.9941L32.5921 16.3253L33.2679 19.345L30.2168 20.0138L29.541 16.9941Z" fill="#7B5DD5"/>
<path d="M23.5786 13.2325L26.6296 12.5637L27.3054 15.5833L24.2545 16.2521L23.5786 13.2325Z" fill="#1DB863"/>
<path d="M81.5971 12.3936C80.281 12.3936 79.1712 12.9583 78.2677 14.0877V6H74.0986V28.6279H78.2677V16.9309C78.69 16.2336 79.2793 15.885 80.0355 15.885C80.6837 15.885 81.1502 16.0961 81.435 16.5185C81.7296 16.9309 81.877 17.6037 81.877 18.5367V28.6279H86.0608V18.4925C86.0509 16.4693 85.6679 14.9471 84.9117 13.9257C84.1555 12.9043 83.0506 12.3936 81.5971 12.3936Z" fill="#7B5DD5"/>
<path fill-rule="evenodd" clip-rule="evenodd" d="M90.4803 27.0074C91.6785 28.2842 93.3481 28.9226 95.4891 28.9226C96.6283 28.9226 97.6841 28.7065 98.6564 28.2744C99.6287 27.8324 100.37 27.2579 100.881 26.5508L99.2457 24.0316C98.3127 24.9843 97.1488 25.4606 95.7542 25.4606C94.7918 25.4606 94.0797 25.1905 93.6181 24.6504C93.1566 24.1004 92.8963 23.2361 92.8374 22.0576H101.131V20.0099C101.112 17.4957 100.596 15.6002 99.5845 14.3234C98.5729 13.0369 97.0654 12.3936 95.0619 12.3936C93.0092 12.3936 91.4329 13.0761 90.333 14.4413C89.233 15.8064 88.683 17.7461 88.683 20.2603V21.5272C88.683 23.904 89.2821 25.7307 90.4803 27.0074ZM97.0359 19.1407H92.8668C92.9258 17.9916 93.1173 17.1568 93.4414 16.6363C93.7753 16.1158 94.3056 15.8555 95.0324 15.8555C95.7592 15.8555 96.2699 16.1011 96.5645 16.5921C96.8591 17.0832 97.0163 17.805 97.0359 18.7577V19.1407Z" fill="#7B5DD5"/>
<path fill-rule="evenodd" clip-rule="evenodd" d="M117.66 27.3905C117.778 27.9699 117.896 28.3824 118.014 28.6279H122.212V28.3775C121.839 27.6016 121.643 26.5262 121.623 25.1513V17.6528C121.623 15.9636 121.142 14.6672 120.179 13.7636C119.227 12.8503 117.876 12.3936 116.128 12.3936C114.439 12.3936 113.039 12.8748 111.93 13.8373C110.83 14.7899 110.28 16.0028 110.28 17.476H114.449C114.449 16.2582 114.969 15.6493 116.01 15.6493C116.482 15.6493 116.84 15.7966 117.086 16.0912C117.331 16.3859 117.454 16.8917 117.454 17.6086V18.8903H116.187C114.184 18.9099 112.647 19.3764 111.576 20.2898C110.515 21.2031 109.985 22.4946 109.985 24.1642C109.985 25.5686 110.422 26.7128 111.296 27.5967C112.18 28.4806 113.29 28.9226 114.626 28.9226C115.902 28.9226 116.914 28.4119 117.66 27.3905ZM116.732 25.3722C116.408 25.5588 116.015 25.6521 115.554 25.6521C114.631 25.6521 114.169 25.0629 114.169 23.8843C114.169 23.1281 114.37 22.5241 114.773 22.0723C115.185 21.6205 115.745 21.3947 116.452 21.3947H117.454V24.7093C117.297 24.9646 117.056 25.1856 116.732 25.3722Z" fill="#7B5DD5"/>
<path fill-rule="evenodd" clip-rule="evenodd" d="M135.766 26.9191C136.63 25.5834 137.062 23.6633 137.062 21.159V19.9362C137.042 17.3827 136.6 15.4872 135.736 14.2498C134.882 13.0123 133.605 12.3936 131.906 12.3936C130.531 12.3936 129.446 12.9779 128.65 14.1466L128.503 12.6882H124.643V34.7563H128.812V27.3463C129.598 28.3971 130.639 28.9226 131.935 28.9226C133.634 28.9226 134.911 28.2547 135.766 26.9191ZM132.392 16.8426C132.736 17.4809 132.908 18.5711 132.908 20.113V21.159C132.908 22.6321 132.746 23.7174 132.422 24.4147C132.107 25.112 131.538 25.4606 130.713 25.4606C129.819 25.4606 129.185 25.1169 128.812 24.4294V16.9604C129.205 16.2435 129.829 15.885 130.683 15.885C131.489 15.885 132.058 16.2042 132.392 16.8426Z" fill="#7B5DD5"/>
<path fill-rule="evenodd" clip-rule="evenodd" d="M150.704 26.9191C151.568 25.5834 152 23.6633 152 21.159V19.9362C151.98 17.3827 151.538 15.4872 150.674 14.2498C149.82 13.0123 148.543 12.3936 146.844 12.3936C145.469 12.3936 144.384 12.9779 143.588 14.1466L143.441 12.6882H139.581V34.7563H143.75V27.3463C144.536 28.3971 145.577 28.9226 146.873 28.9226C148.572 28.9226 149.849 28.2547 150.704 26.9191ZM147.33 16.8426C147.674 17.4809 147.846 18.5711 147.846 20.113V21.159C147.846 22.6321 147.684 23.7174 147.36 24.4147C147.045 25.112 146.476 25.4606 145.651 25.4606C144.757 25.4606 144.123 25.1169 143.75 24.4294V16.9604C144.143 16.2435 144.767 15.885 145.621 15.885C146.426 15.885 146.996 16.2042 147.33 16.8426Z" fill="#7B5DD5"/>
<path d="M66.8654 13.064L66.0095 9.23994L61.9411 10.1505L62.797 13.9746L61 14.3768L61.6854 17.4389L63.4824 17.0367L65.3325 25.3029C66.0348 28.3058 67.699 29.5134 70.325 28.9257C71.1301 28.7455 71.8487 28.4488 72.4808 28.0356L71.8017 24.8664C71.5675 24.9893 71.254 25.0947 70.861 25.1826C70.3818 25.2899 70.0302 25.2478 69.8062 25.0564C69.5918 24.8628 69.416 24.4594 69.2787 23.846L67.5508 16.1261L69.6353 15.6595L68.95 12.5974L66.8654 13.064Z" fill="#7B5DD5"/>
</svg>
